<svg xmlns="http://www.w3.org/2000/svg" xmlns:svg="http://www.w3.org/2000/svg" version="1.1" viewBox="65.00000000000001 202.31293017563283 87.36354209443304 65.37413964873437" style="width:auto;height: 60px;">
    <path
      d="M152.36354,235.00341c0,15.16049 -10.72242,28.57079 -25.49656,31.88769c-0.21938,0.05339 -0.44652,0.07571 -0.6659,0.07571c-1.38617,0 -2.63547,-0.9542 -2.95289,-2.3627c-0.36304,-1.63564 0.65911,-3.25575 2.29475,-3.61976c12.03287,-2.70342 20.7634,-13.63065 20.7634,-25.98095c0,-14.6829 -11.94939,-26.63229 -26.63229,-26.63229c-9.64687,0 -18.52204,5.20978 -23.23967,13.63065c-0.00777,0.00777 -0.00777,0.01553 -0.00777,0.02233c-0.49215,1.33278 -1.87832,2.18117 -3.33146,1.9385c-1.00662,-0.16696 -2.04431,-0.24947 -3.07423,-0.24947c-10.45742,0 -18.96177,8.50339 -18.96177,18.96177c0,10.44965 8.50339,18.954 18.96177,18.954c10.32928,0 18.75695,-8.3141 18.94624,-18.59776l-3.03637,3.03637c-1.18911,1.18911 -3.10432,1.18135 -4.28567,0c-1.18135,-1.18135 -1.18135,-3.09752 0,-4.27887l8.21606,-8.22382c0.56786,-0.56786 1.34055,-0.88626 2.14332,-0.88626c0.80277,0 1.57546,0.31839 2.14332,0.88626l8.21606,8.22382c1.18911,1.18135 1.18911,3.09752 0,4.27887c-0.59019,0.59019 -1.36287,0.88626 -2.13555,0.88626c-0.77947,0 -1.55216,-0.2951 -2.14332,-0.88626l-3.05966,-3.0519c-0.18152,13.63065 -11.32814,24.67146 -25.00441,24.67146c-13.79859,-0.00097 -25.02092,-11.2233 -25.02092,-25.01315c0,-13.79664 11.22233,-25.01898 25.01898,-25.01898c0.63581,0 1.26483,0.02233 1.90064,0.07571c5.95237,-9.5566 16.40979,-15.41772 27.75346,-15.41772c18.02989,0 32.69047,14.66057 32.69047,32.69047z"
      data-paper-data='{"isPathIcon":true}'
      fill="#FFFFFF"
    />
</svg>
