<svg xmlns="http://www.w3.org/2000/svg" viewBox="65 202.31293 61.863008 51.831216" xmlns:xlink="http://www.w3.org/1999/xlink" fill="#fff"><path
       d="m 152.36354,235.00341 c 0,15.16049 -10.72242,28.57079 -25.49656,31.88769 -0.21938,0.0534 -0.44652,0.0757 -0.6659,0.0757 -1.38617,0 -2.63547,-0.9542 -2.95289,-2.3627 -0.36304,-1.63564 0.65911,-3.25575 2.29475,-3.61976 12.03287,-2.70342 20.7634,-13.63065 20.7634,-25.98095 0,-14.6829 -11.94939,-26.63229 -26.63229,-26.63229 -9.64687,0 -18.52204,5.20978 -23.23967,13.63065 -0.0078,0.008 -0.0078,0.0155 -0.0078,0.0223 -0.49215,1.33278 -1.87832,2.18117 -3.33146,1.9385 -1.00662,-0.16696 -2.04431,-0.24947 -3.07423,-0.24947 -10.45742,0 -18.96177,8.50339 -18.96177,18.96177 0,10.44965 8.50339,18.954 18.96177,18.954 10.32928,0 18.75695,-8.3141 18.94624,-18.59776 l -3.03637,3.03637 c -1.18911,1.18911 -3.10432,1.18135 -4.28567,0 -1.18135,-1.18135 -1.18135,-3.09752 0,-4.27887 l 8.21606,-8.22382 c 0.56786,-0.56786 1.34055,-0.88626 2.14332,-0.88626 0.80277,0 1.57546,0.31839 2.14332,0.88626 l 8.21606,8.22382 c 1.18911,1.18135 1.18911,3.09752 0,4.27887 -0.59019,0.59019 -1.36287,0.88626 -2.13555,0.88626 -0.77947,0 -1.55216,-0.2951 -2.14332,-0.88626 l -3.05966,-3.0519 c -0.18152,13.63065 -11.32814,24.67146 -25.00441,24.67146 -13.79859,-9.7e-4 -25.02092,-11.2233 -25.02092,-25.01315 0,-13.79664 11.22233,-25.01898 25.01898,-25.01898 0.63581,0 1.26483,0.0223 1.90064,0.0757 5.95237,-9.5566 16.40979,-15.41772 27.75346,-15.41772 18.02989,0 32.69047,14.66057 32.69047,32.69047 z"/></svg>